<svg width="16" height="17" viewBox="0 0 16 17" fill="none" xmlns="http://www.w3.org/2000/svg">
<path d="M8.70809 0.78103C8.52027 0.59327 8.26557 0.487793 8 0.487793C7.73443 0.487793 7.47973 0.59327 7.29191 0.78103L0.281144 7.7918C0.0987053 7.98069 -0.00224406 8.23368 3.78608e-05 8.49628C0.00231978 8.75888 0.107651 9.01008 0.293344 9.19577C0.479037 9.38147 0.730235 9.4868 0.992835 9.48908C1.25544 9.49136 1.50843 9.39041 1.69732 9.20797L1.99077 8.91452V15.5107C1.99077 15.7763 2.09629 16.031 2.28411 16.2188C2.47194 16.4067 2.72668 16.5122 2.99231 16.5122H4.99538C5.26101 16.5122 5.51575 16.4067 5.70358 16.2188C5.8914 16.031 5.99692 15.7763 5.99692 15.5107V13.5076C5.99692 13.242 6.10244 12.9872 6.29027 12.7994C6.47809 12.6116 6.73284 12.506 6.99846 12.506H9.00154C9.26716 12.506 9.52191 12.6116 9.70973 12.7994C9.89756 12.9872 10.0031 13.242 10.0031 13.5076V15.5107C10.0031 15.7763 10.1086 16.031 10.2964 16.2188C10.4842 16.4067 10.739 16.5122 11.0046 16.5122H13.0077C13.2733 16.5122 13.5281 16.4067 13.7159 16.2188C13.9037 16.031 14.0092 15.7763 14.0092 15.5107V8.91452L14.3027 9.20797C14.4916 9.39041 14.7446 9.49136 15.0072 9.48908C15.2698 9.4868 15.521 9.38147 15.7067 9.19577C15.8923 9.01008 15.9977 8.75888 16 8.49628C16.0022 8.23368 15.9013 7.98069 15.7189 7.7918L8.70809 0.78103Z" fill="white"/>
</svg>
