<svg width="48" height="48" viewBox="0 0 48 48" fill="none" xmlns="http://www.w3.org/2000/svg">
<path fill-rule="evenodd" clip-rule="evenodd" d="M46.6269 32.0852L32.7494 32.0964L32.7366 46.3767C31.9509 46.8587 28.1715 47.8899 27.0242 47.8287L26.9888 26.3704L47.8592 26.325C47.9634 27.3148 46.8843 31.5114 46.6269 32.0852Z" fill="#990099"/>
<path fill-rule="evenodd" clip-rule="evenodd" d="M24.2261 23.6076L24.2336 39.777C22.1609 39.7162 20.1699 39.2874 18.4972 38.5429V17.866H38.7048C39.3434 19.6644 39.7169 21.6271 39.7771 23.6077L24.2261 23.6076Z" fill="#CC9933"/>
<path fill-rule="evenodd" clip-rule="evenodd" d="M48 23.5739C47.803 17.0849 45.05 10.9775 40.726 6.78365C36.3923 2.58039 30.4914 0 24.0104 0C17.3804 0 11.3777 2.68703 7.03266 7.03124C2.68757 11.3755 0 17.3769 0 24.0057C0 30.6344 2.68757 36.6358 7.03266 40.98C12.0031 45.9494 18.1421 48.0604 24.2261 47.9987V42.3635C19.837 42.4076 14.9445 40.891 11.0331 36.9803C7.71208 33.66 5.65799 29.0728 5.65799 24.0057C5.65799 18.9385 7.71219 14.3512 11.0331 11.0309C14.354 7.71064 18.9423 5.6569 24.0104 5.6569C28.9773 5.6569 33.4886 7.6237 36.7918 10.8275C40.1048 14.0407 42.2138 18.6227 42.3642 23.574L48 23.5739Z" fill="#990099"/>
</svg>
