<svg width="87" height="79" viewBox="0 0 87 79" fill="none" xmlns="http://www.w3.org/2000/svg">
<g clip-path="url(#clip0_53804_30222)">
<path fill-rule="evenodd" clip-rule="evenodd" d="M77.4957 64.5327C80.2087 62.9159 76.3864 57.4307 75.1241 55.0657C73.7872 52.566 71.3729 48.3253 70.676 45.6447C71.4938 45.9355 72.0093 46.3255 73.0689 46.5985C77.0939 47.6339 82.9288 46.5418 85.4142 42.6415C88.5254 37.7626 86.8969 31.274 81.9012 28.8912C80.1411 28.0509 78.3811 27.8736 76.1908 27.8559C73.7587 27.8346 72.4005 28.331 70.5977 29.1359C70.9 28.1963 72.34 25.9731 72.9125 25.2321C74.2601 23.4805 76.9481 19.6688 77.7375 17.6194C78.2851 16.194 78.8967 13.2759 76.7064 13.2972C73.5312 13.3291 68.4572 18.981 66.4518 21.7183C65.6234 22.8493 64.7095 24.2499 64.0055 25.6115C60.4783 32.405 59.6783 37.5605 62.2597 45.9497C63.2233 49.0876 64.5175 52.0873 65.9434 54.6934C66.8572 56.367 69.9719 61.1679 71.2484 61.8876C71.2698 61.916 71.2662 61.9586 71.3124 61.9727C71.3586 61.9869 71.3622 62.0366 71.3764 62.0543C71.3906 62.072 71.4226 62.111 71.4404 62.1323L73.0334 63.6073C74.2956 64.5115 75.9952 65.2986 77.4957 64.5257V64.5327Z" fill="#00E600"/>
<path fill-rule="evenodd" clip-rule="evenodd" d="M9.5043 64.5327C6.79133 62.9159 10.6137 57.4307 11.8759 55.0657C13.2129 52.566 15.6272 48.3253 16.3241 45.6447C15.5063 45.9355 14.9907 46.3255 13.9311 46.5985C9.90609 47.6339 4.07124 46.5418 1.58583 42.6415C-1.52537 37.7626 0.103121 31.274 5.09883 28.8912C6.85888 28.0509 8.61894 27.8736 10.8092 27.8559C13.2413 27.8346 14.5996 28.331 16.4023 29.1359C16.1001 28.1963 14.66 25.9731 14.0875 25.2321C12.74 23.4805 10.0519 19.6688 9.26251 17.6194C8.71494 16.194 8.10337 13.2759 10.2937 13.2972C13.4689 13.3291 18.5428 18.981 20.5482 21.7183C21.3767 22.8493 22.2905 24.2499 22.9945 25.6115C26.5217 32.405 27.3217 37.5605 24.7403 45.9497C23.7767 49.0876 22.4825 52.0873 21.0567 54.6934C20.1428 56.367 17.0281 61.1679 15.7516 61.8876C15.7303 61.916 15.7338 61.9586 15.6876 61.9727C15.6414 61.9869 15.6378 62.0366 15.6236 62.0543C15.6094 62.072 15.5774 62.111 15.5596 62.1323L13.9667 63.6073C12.7044 64.5115 11.0048 65.2986 9.5043 64.5257V64.5327Z" fill="#FD222E"/>
<path fill-rule="evenodd" clip-rule="evenodd" d="M70.2635 69.5251C68.6421 72.2305 63.1379 68.4188 60.7699 67.1601C58.2631 65.8269 54.0105 63.4194 51.3225 62.7244C51.614 63.5399 52.0051 64.0541 52.2789 65.1107C53.3172 69.1244 52.222 74.9429 48.3108 77.4214C43.4182 80.5239 36.9114 78.9 34.5219 73.9182C33.6793 72.1631 33.5015 70.408 33.4837 68.2238C33.4624 65.7986 33.9601 64.4441 34.7673 62.6464C33.825 62.9478 31.5956 64.3838 30.8525 64.9547C29.096 66.2985 25.2737 68.9791 23.222 69.7662C21.7927 70.3122 18.8664 70.9221 18.8877 68.7379C18.9197 65.5716 24.5874 60.5119 27.3324 58.5121C28.4667 57.686 29.8711 56.7747 31.2365 56.0727C38.0492 52.5553 43.2191 51.7575 51.6318 54.3317C54.7786 55.2926 57.7867 56.5832 60.4001 58.0051C62.0783 58.9163 66.8927 62.0224 67.6145 63.2953C67.643 63.3166 67.6856 63.313 67.6998 63.3591C67.7141 63.4052 67.7639 63.4087 67.7816 63.4229C67.7994 63.4371 67.8385 63.469 67.8599 63.4867L69.339 65.0752C70.2457 66.334 71.0351 68.0288 70.2599 69.5251H70.2635Z" fill="#FCC61E"/>
<path fill-rule="evenodd" clip-rule="evenodd" d="M70.2635 9.47845C68.6421 6.77307 63.1379 10.5847 60.7699 11.8434C58.2631 13.1766 54.0105 15.5842 51.3225 16.2791C51.614 15.4636 52.0051 14.9495 52.2789 13.8929C53.3172 9.87912 52.222 4.0606 48.3108 1.58215C43.4182 -1.52035 36.9114 0.103585 34.5219 5.08531C33.6793 6.84044 33.5015 8.59557 33.4837 10.7797C33.4624 13.205 33.9601 14.5595 34.7673 16.3571C33.825 16.0557 31.5956 14.6197 30.8525 14.0489C29.096 12.705 25.2737 10.0245 23.222 9.23734C21.7927 8.6913 18.8664 8.08144 18.8877 10.2656C18.9197 13.4319 24.5874 18.4917 27.3324 20.4914C28.4667 21.3176 29.8711 22.2288 31.2365 22.9309C38.0492 26.4482 43.2191 27.246 51.6318 24.6718C54.7786 23.7109 57.7867 22.4203 60.4001 20.9985C62.0783 20.0872 66.8927 16.9812 67.6145 15.7083C67.643 15.687 67.6856 15.6905 67.6998 15.6444C67.7141 15.5983 67.7639 15.5948 67.7816 15.5806C67.7994 15.5664 67.8385 15.5345 67.8599 15.5168L69.339 13.9283C70.2457 12.6696 71.0351 10.9747 70.2599 9.47845H70.2635Z" fill="#0CDAFA"/>
</g>
<defs>
<clipPath id="clip0_53804_30222">
<rect width="87" height="79" fill="white"/>
</clipPath>
</defs>
</svg>
